<svg id="Capa_1" enable-background="new 0 0 508.998 508.998" height="512" viewBox="0 0 508.998 508.998" width="512" xmlns="http://www.w3.org/2000/svg"><g><g><path d="m313.582 15.581-78.123 12.073-111.868 64.897-50.849 186.84 103.256 129.078 96.227 57.674 31.597-18.927 8.454-9.96c92.769-25.343 160.965-110.208 160.965-211.014 0-100.334-67.555-184.882-159.659-210.661z" fill="#ee6161"/><path d="m292.806 443.997c-94.041-25.065-163.162-111.205-162.254-213.353.969-109.142 81.03-198.553 185.689-214.293-19.582-5.751-40.298-8.851-61.741-8.851-120.383 0-217.665 96.377-218.734 216.755-.907 102.147 68.213 188.287 162.254 213.352l52.447 61.792c2.374 2.797 6.69 2.797 9.064 0l44.291-52.183z" fill="#e94444"/><circle cx="254.499" cy="226.242" fill="#f9f7f8" r="154.674"/><path d="m151.347 226.242c0-76.646 55.779-140.267 128.939-152.534-8.379-1.405-17.009-2.14-25.788-2.14-85.424 0-154.674 69.25-154.674 154.674s69.25 154.674 154.674 154.674c8.778 0 17.408-.735 25.788-2.14-73.16-12.266-128.939-75.888-128.939-152.534z" fill="#efedef"/><g><path d="m329.326 293.155v-106.647l-74.827-58.284-74.826 55.794v109.137z" fill="#fde6bf"/></g><g><path d="m254.499 128.224-51.063 38.075v19.868h-23.763v106.989h31.103v-74.14c0-4.746 2.141-9.238 5.826-12.227l33.618-27.268c2.494-2.023 6.065-2.023 8.56 0l64.001 51.912c2.003 1.625 4.21 2.958 6.546 3.993v-48.916z" fill="#fdd79b"/><path d="m335.383 215.902-80.883-65.606-80.884 65.606c-3.906 3.168-9.641 2.57-12.809-1.336l-7.425-9.154c-3.168-3.906-2.57-9.641 1.336-12.809l90.333-73.27c5.507-4.468 13.391-4.468 18.898 0l90.332 73.27c3.906 3.168 4.504 8.903 1.336 12.809l-7.425 9.154c-3.169 3.906-8.903 4.504-12.809 1.336z" fill="#d77f4a"/></g><path d="m280.123 293.141v-13.624c0-14.152-11.472-25.624-25.624-25.624-14.152 0-25.624 11.472-25.624 25.624v13.624z" fill="#fccd7f"/></g><g><path d="m349.334 94.686c-27.738-20.03-60.531-30.617-94.835-30.617-89.423 0-162.174 72.751-162.174 162.174s72.751 162.174 162.174 162.174 162.174-72.751 162.174-162.174c0-40.513-15.021-79.301-42.295-109.22-2.792-3.061-7.535-3.28-10.596-.49-3.062 2.791-3.28 7.534-.49 10.596 24.75 27.149 38.381 62.35 38.381 99.114 0 81.152-66.021 147.174-147.174 147.174s-147.174-66.021-147.174-147.174 66.022-147.175 147.174-147.175c31.131 0 60.888 9.605 86.054 27.777 3.358 2.425 8.046 1.669 10.471-1.689s1.669-8.046-1.69-10.47z"/><path d="m414.477 66.265c-42.732-42.732-99.545-66.265-159.977-66.265-60.216 0-116.821 23.229-159.389 65.408-42.571 42.183-66.311 98.571-66.846 158.78-.401 45.132 12.456 88.823 37.183 126.352 2.279 3.46 6.931 4.417 10.389 2.137 3.459-2.278 4.416-6.931 2.137-10.389-23.081-35.032-35.083-75.824-34.708-117.967 1.025-115.42 95.784-209.321 211.234-209.321 116.479 0 211.241 94.763 211.241 211.242 0 94.98-63.92 178.777-155.441 203.778-1.459.399-2.763 1.229-3.741 2.382l-51.56 60.747-51.261-60.396c-.988-1.165-2.31-2-3.786-2.394-39.765-10.598-75.376-32.524-102.985-63.408-2.761-3.087-7.502-3.353-10.591-.593-3.088 2.761-3.354 7.502-.593 10.591 29.036 32.479 66.346 55.708 108.024 67.283l50.94 60.019c2.56 3.016 6.296 4.746 10.251 4.746s7.691-1.73 10.25-4.745l51.257-60.391c96.818-27.53 164.235-116.68 164.235-217.62.001-60.43-23.532-117.245-66.263-159.976z"/><path d="m329.326 243.961c4.143 0 7.5-3.357 7.5-7.5v-11.584c1.38.369 2.81.561 4.262.561.582 0 1.167-.03 1.754-.091 4.411-.46 8.38-2.61 11.175-6.056l7.424-9.154c5.769-7.11 4.677-17.589-2.436-23.359l-90.331-73.269c-8.214-6.662-20.135-6.663-28.349-.001l-90.332 73.271c-7.112 5.77-8.204 16.248-2.437 23.358l7.426 9.154c4.25 5.241 11.057 7.2 17.19 5.567v60.797h-2.254c-4.143 0-7.5 3.357-7.5 7.5s3.357 7.5 7.5 7.5h169.196c4.143 0 7.5-3.357 7.5-7.5s-3.357-7.5-7.5-7.5h-2.289v-17.231c0-4.143-3.357-7.5-7.5-7.5s-7.5 3.357-7.5 7.5v17.231h-34.203v-6.138c0-18.265-14.859-33.124-33.124-33.124s-33.124 14.859-33.124 33.124v6.138h-34.202v-71.092l67.326-54.61 67.327 54.61v21.898c.001 4.143 3.359 7.5 7.501 7.5zm-92.951 35.557c0-9.993 8.131-18.124 18.124-18.124s18.124 8.131 18.124 18.124v6.138h-36.248zm13.4-135.047-74.866 60.726c-.004.003-.007.006-.01.009l-6.007 4.873c-.426.345-.874.377-1.178.35-.303-.032-.735-.159-1.081-.586l-7.426-9.154c-.347-.428-.382-.877-.35-1.179.031-.302.158-.734.586-1.081l90.332-73.271c1.369-1.11 3.047-1.665 4.725-1.665s3.355.555 4.725 1.666l90.332 73.269c.428.348.555.78.586 1.082.032.302-.003.751-.351 1.179l-7.424 9.154c-.347.427-.779.554-1.081.585-.299.031-.75-.002-1.178-.35 0 0-.001 0-.001-.001l-80.884-65.605c-2.754-2.234-6.696-2.234-9.449-.001z"/><path d="m228.875 202.489c-4.143 0-7.5 3.357-7.5 7.5s3.357 7.5 7.5 7.5h51.248c4.143 0 7.5-3.357 7.5-7.5s-3.357-7.5-7.5-7.5z"/></g></g></svg>